<?xml version="1.0" encoding="UTF-8" standalone="no"?>
<!DOCTYPE svg PUBLIC "-//W3C//DTD SVG 1.1//EN"
 "http://www.w3.org/Graphics/SVG/1.1/DTD/svg11.dtd">
<!-- Generated by graphviz version 2.44.1 (20200629.0846)
 -->
<!-- Pages: 1 -->
<svg width="1829pt" height="1113pt"
 viewBox="0.00 0.00 1829.43 1113.00" xmlns="http://www.w3.org/2000/svg" xmlns:xlink="http://www.w3.org/1999/xlink">
<g id="graph0" class="graph" transform="scale(1 1) rotate(0) translate(4 1109)">
<polygon fill="white" stroke="transparent" points="-4,4 -4,-1109 1825.43,-1109 1825.43,4 -4,4"/>
<g id="clust1" class="cluster">
<title>cluster&#45;nid&#45;02</title>
<polygon fill="none" stroke="#cccccc" points="36.99,-107 36.99,-177 491.11,-177 491.11,-107 36.99,-107"/>
</g>
<g id="clust2" class="cluster">
<title>cluster&#45;nid&#45;03</title>
<polygon fill="none" stroke="#cccccc" points="36.99,-22 36.99,-92 491.11,-92 491.11,-22 36.99,-22"/>
</g>
<g id="clust5" class="cluster">
<title>cluster&#45;nid&#45;06</title>
<polygon fill="none" stroke="#cccccc" points="8,-283 8,-353 154.11,-353 154.11,-283 8,-283"/>
</g>
<g id="clust6" class="cluster">
<title>cluster&#45;nid&#45;07</title>
<polygon fill="none" stroke="#cccccc" points="1152.53,-1016 1152.53,-1086 1525.3,-1086 1525.3,-1016 1152.53,-1016"/>
</g>
<g id="clust7" class="cluster">
<title>cluster&#45;nid&#45;08</title>
<polygon fill="none" stroke="#cccccc" points="1446.24,-766 1446.24,-836 1813.43,-836 1813.43,-766 1446.24,-766"/>
</g>
<g id="clust8" class="cluster">
<title>cluster&#45;nid&#45;09</title>
<polygon fill="none" stroke="#cccccc" points="1446.24,-408 1446.24,-478 1813.43,-478 1813.43,-408 1446.24,-408"/>
</g>
<g id="clust18" class="cluster">
<title>cluster&#45;nid&#45;12&#45;out</title>
<polygon fill="none" stroke="#cccccc" points="377.11,-919 377.11,-1003 535.11,-1003 535.11,-919 377.11,-919"/>
</g>
<g id="clust20" class="cluster">
<title>cluster&#45;nid&#45;13&#45;out</title>
<polygon fill="none" stroke="#cccccc" points="366.11,-1011 366.11,-1095 546.11,-1095 546.11,-1011 366.11,-1011"/>
</g>
<g id="clust21" class="cluster">
<title>cluster&#45;nid&#45;14&#45;in</title>
<polygon fill="none" stroke="#cccccc" points="758.5,-192 758.5,-276 937.5,-276 937.5,-192 758.5,-192"/>
</g>
<g id="clust27" class="cluster">
<title>cluster&#45;nid&#45;18&#45;out</title>
<polygon fill="none" stroke="#cccccc" points="367.61,-623 367.61,-707 544.61,-707 544.61,-623 367.61,-623"/>
</g>
<g id="clust29" class="cluster">
<title>cluster&#45;nid&#45;19&#45;out</title>
<polygon fill="none" stroke="#cccccc" points="375.61,-508 375.61,-592 536.61,-592 536.61,-508 375.61,-508"/>
</g>
<g id="clust31" class="cluster">
<title>cluster&#45;nid&#45;1a&#45;out</title>
<polygon fill="none" stroke="#cccccc" points="367.61,-371 367.61,-455 544.61,-455 544.61,-371 367.61,-371"/>
</g>
<g id="clust32" class="cluster">
<title>cluster&#45;nid&#45;1b&#45;in</title>
<polygon fill="none" stroke="#cccccc" points="759.5,-8 759.5,-92 1222.53,-92 1222.53,-8 759.5,-8"/>
</g>
<g id="clust33" class="cluster">
<title>cluster&#45;nid&#45;1b&#45;out</title>
<polygon fill="none" stroke="#cccccc" points="46.05,-824 46.05,-908 544.61,-908 544.61,-824 46.05,-824"/>
</g>
<g id="clust36" class="cluster">
<title>cluster&#45;nid&#45;1d&#45;out</title>
<polygon fill="none" stroke="#cccccc" points="354.11,-726 354.11,-810 558.11,-810 558.11,-726 354.11,-726"/>
</g>
<g id="clust37" class="cluster">
<title>cluster&#45;nid&#45;1e&#45;in</title>
<polygon fill="none" stroke="#cccccc" points="367.61,-276 367.61,-360 544.61,-360 544.61,-276 367.61,-276"/>
</g>
<g id="clust41" class="cluster">
<title>cluster&#45;nid&#45;21&#45;in</title>
<polygon fill="none" stroke="#cccccc" points="758.5,-100 758.5,-184 937.5,-184 937.5,-100 758.5,-100"/>
</g>
<g id="clust43" class="cluster">
<title>cluster&#45;nid&#45;22</title>
<polygon fill="none" stroke="#cccccc" points="758.11,-284 758.11,-602 1237.18,-602 1237.18,-284 758.11,-284"/>
</g>
<g id="clust44" class="cluster">
<title>cluster&#45;nid&#45;23</title>
<polygon fill="none" stroke="#cccccc" points="758.11,-610 758.11,-992 1237.18,-992 1237.18,-610 758.11,-610"/>
</g>
<g id="clust45" class="cluster">
<title>cluster&#45;nid&#45;24</title>
<polygon fill="none" stroke="#cccccc" points="787.13,-1005 787.13,-1097 908.87,-1097 908.87,-1005 787.13,-1005"/>
</g>
<!-- nid&#45;02 -->
<g id="node1" class="node">
<title>nid&#45;02</title>
<ellipse fill="none" stroke="blue" cx="81.05" cy="-142" rx="36.12" ry="26.74"/>
<text text-anchor="middle" x="81.05" y="-145.8" font-family="Times,serif" font-size="14.00">0x02</text>
<text text-anchor="middle" x="81.05" y="-130.8" font-family="Times,serif" font-size="14.00">Stereo</text>
</g>
<!-- nid&#45;02&#45;ampout -->
<g id="node2" class="node">
<title>nid&#45;02&#45;ampout</title>
<polygon fill="none" stroke="#0000ff" points="483.11,-142 442.61,-160 442.61,-124 483.11,-142"/>
</g>
<!-- nid&#45;02&#45;&gt;nid&#45;02&#45;ampout -->
<g id="edge1" class="edge">
<title>nid&#45;02&#45;&gt;nid&#45;02&#45;ampout</title>
<path fill="none" stroke="#0000ff" d="M117.15,-142C194.81,-142 378.95,-142 437.15,-142"/>
<polygon fill="#0000ff" stroke="#0000ff" points="437.38,-143.75 442.38,-142 437.38,-140.25 437.38,-143.75"/>
</g>
<!-- nid&#45;14&#45;in -->
<g id="node17" class="node">
<title>nid&#45;14&#45;in</title>
<polygon fill="none" stroke="green" points="929.5,-268 766.5,-268 766.5,-200 929.5,-200 929.5,-268"/>
<text text-anchor="middle" x="848" y="-252.8" font-family="Times,serif" font-size="14.00">0x14</text>
<text text-anchor="middle" x="848" y="-237.8" font-family="Times,serif" font-size="14.00">[Fixed] Speaker at Int N/A</text>
<text text-anchor="middle" x="848" y="-222.8" font-family="Times,serif" font-size="14.00">Stereo</text>
<text text-anchor="middle" x="848" y="-207.8" font-family="Times,serif" font-size="14.00">OUT EAPD Detect</text>
</g>
<!-- nid&#45;02&#45;ampout&#45;&gt;nid&#45;14&#45;in -->
<g id="edge9" class="edge">
<title>nid&#45;02&#45;ampout&#45;&gt;nid&#45;14&#45;in</title>
<path fill="none" stroke="#333333" d="M474.11,-146.01C522.31,-157.39 662.43,-190.45 756.51,-212.65"/>
<polygon fill="#333333" stroke="#333333" points="755.78,-216.07 766.31,-214.96 757.38,-209.26 755.78,-216.07"/>
</g>
<!-- nid&#45;1b&#45;in -->
<g id="node21" class="node">
<title>nid&#45;1b&#45;in</title>
<polygon fill="none" stroke="green" points="928.5,-84 767.5,-84 767.5,-16 928.5,-16 928.5,-84"/>
<text text-anchor="middle" x="848" y="-68.8" font-family="Times,serif" font-size="14.00">0x1b</text>
<text text-anchor="middle" x="848" y="-53.8" font-family="Times,serif" font-size="14.00">[N/A] Speaker at Ext Rear</text>
<text text-anchor="middle" x="848" y="-38.8" font-family="Times,serif" font-size="14.00">Stereo</text>
<text text-anchor="middle" x="848" y="-23.8" font-family="Times,serif" font-size="14.00">IN OUT EAPD Detect</text>
</g>
<!-- nid&#45;02&#45;ampout&#45;&gt;nid&#45;1b&#45;in -->
<g id="edge12" class="edge">
<title>nid&#45;02&#45;ampout&#45;&gt;nid&#45;1b&#45;in</title>
<path fill="none" stroke="#333333" d="M474.11,-137.99C522.45,-126.58 663.26,-93.36 757.33,-71.16"/>
<polygon fill="#333333" stroke="#333333" points="758.21,-74.55 767.14,-68.84 756.6,-67.73 758.21,-74.55"/>
</g>
<!-- nid&#45;21&#45;in -->
<g id="node27" class="node">
<title>nid&#45;21&#45;in</title>
<polygon fill="none" stroke="green" points="929.5,-176 766.5,-176 766.5,-108 929.5,-108 929.5,-176"/>
<text text-anchor="middle" x="848" y="-160.8" font-family="Times,serif" font-size="14.00">0x21</text>
<text text-anchor="middle" x="848" y="-145.8" font-family="Times,serif" font-size="14.00">[Jack] HP Out at Ext Front</text>
<text text-anchor="middle" x="848" y="-130.8" font-family="Times,serif" font-size="14.00">Stereo</text>
<text text-anchor="middle" x="848" y="-115.8" font-family="Times,serif" font-size="14.00">OUT HP EAPD Detect</text>
</g>
<!-- nid&#45;02&#45;ampout&#45;&gt;nid&#45;21&#45;in -->
<g id="edge15" class="edge">
<title>nid&#45;02&#45;ampout&#45;&gt;nid&#45;21&#45;in</title>
<path fill="none" stroke="gray" stroke-dasharray="5,2" d="M483.3,-142C538.21,-142 667.64,-142 756.3,-142"/>
<polygon fill="gray" stroke="gray" points="756.37,-145.5 766.37,-142 756.37,-138.5 756.37,-145.5"/>
</g>
<!-- nid&#45;03 -->
<g id="node3" class="node">
<title>nid&#45;03</title>
<ellipse fill="none" stroke="blue" cx="81.05" cy="-57" rx="36.12" ry="26.74"/>
<text text-anchor="middle" x="81.05" y="-60.8" font-family="Times,serif" font-size="14.00">0x03</text>
<text text-anchor="middle" x="81.05" y="-45.8" font-family="Times,serif" font-size="14.00">Stereo</text>
</g>
<!-- nid&#45;03&#45;ampout -->
<g id="node4" class="node">
<title>nid&#45;03&#45;ampout</title>
<polygon fill="none" stroke="#0000ff" points="483.11,-57 442.61,-75 442.61,-39 483.11,-57"/>
</g>
<!-- nid&#45;03&#45;&gt;nid&#45;03&#45;ampout -->
<g id="edge2" class="edge">
<title>nid&#45;03&#45;&gt;nid&#45;03&#45;ampout</title>
<path fill="none" stroke="#0000ff" d="M117.15,-57C194.81,-57 378.95,-57 437.15,-57"/>
<polygon fill="#0000ff" stroke="#0000ff" points="437.38,-58.75 442.38,-57 437.38,-55.25 437.38,-58.75"/>
</g>
<!-- nid&#45;03&#45;ampout&#45;&gt;nid&#45;1b&#45;in -->
<g id="edge13" class="edge">
<title>nid&#45;03&#45;ampout&#45;&gt;nid&#45;1b&#45;in</title>
<path fill="none" stroke="gray" stroke-dasharray="5,2" d="M482.39,-56.55C536.98,-55.57 668.17,-53.21 757.35,-51.61"/>
<polygon fill="gray" stroke="gray" points="757.53,-55.11 767.47,-51.43 757.41,-48.11 757.53,-55.11"/>
</g>
<!-- nid&#45;03&#45;ampout&#45;&gt;nid&#45;21&#45;in -->
<g id="edge16" class="edge">
<title>nid&#45;03&#45;ampout&#45;&gt;nid&#45;21&#45;in</title>
<path fill="none" stroke="#333333" d="M474.62,-60.82C523.28,-71.43 662.7,-101.82 756.44,-122.26"/>
<polygon fill="#333333" stroke="#333333" points="755.7,-125.68 766.22,-124.39 757.19,-118.84 755.7,-125.68"/>
</g>
<!-- nid&#45;06 -->
<g id="node5" class="node">
<title>nid&#45;06</title>
<ellipse fill="none" stroke="blue" cx="81.05" cy="-318" rx="65.11" ry="26.74"/>
<text text-anchor="middle" x="81.05" y="-321.8" font-family="Times,serif" font-size="14.00">0x06</text>
<text text-anchor="middle" x="81.05" y="-306.8" font-family="Times,serif" font-size="14.00">Stereo Digital</text>
</g>
<!-- nid&#45;1e&#45;in -->
<g id="node26" class="node">
<title>nid&#45;1e&#45;in</title>
<polygon fill="none" stroke="green" points="536.61,-352 375.61,-352 375.61,-284 536.61,-284 536.61,-352"/>
<text text-anchor="middle" x="456.11" y="-336.8" font-family="Times,serif" font-size="14.00">0x1e</text>
<text text-anchor="middle" x="456.11" y="-321.8" font-family="Times,serif" font-size="14.00">[N/A] Speaker at Ext Rear</text>
<text text-anchor="middle" x="456.11" y="-306.8" font-family="Times,serif" font-size="14.00">Stereo Digital</text>
<text text-anchor="middle" x="456.11" y="-291.8" font-family="Times,serif" font-size="14.00">OUT Detect</text>
</g>
<!-- nid&#45;06&#45;&gt;nid&#45;1e&#45;in -->
<g id="edge14" class="edge">
<title>nid&#45;06&#45;&gt;nid&#45;1e&#45;in</title>
<path fill="none" stroke="#333333" d="M146.18,-318C206.52,-318 297.45,-318 365.05,-318"/>
<polygon fill="#333333" stroke="#333333" points="365.27,-321.5 375.27,-318 365.27,-314.5 365.27,-321.5"/>
</g>
<!-- nid&#45;07 -->
<g id="node6" class="node">
<title>nid&#45;07</title>
<ellipse fill="none" stroke="red" cx="1481.24" cy="-1051" rx="36.12" ry="26.74"/>
<text text-anchor="middle" x="1481.24" y="-1054.8" font-family="Times,serif" font-size="14.00">0x07</text>
<text text-anchor="middle" x="1481.24" y="-1039.8" font-family="Times,serif" font-size="14.00">Stereo</text>
</g>
<!-- nid&#45;07&#45;ampin -->
<g id="node7" class="node">
<title>nid&#45;07&#45;ampin</title>
<polygon fill="none" stroke="#c8c8c8" points="1214.53,-1051 1174.03,-1069 1174.03,-1033 1214.53,-1051"/>
</g>
<!-- nid&#45;07&#45;ampin&#45;&gt;nid&#45;07 -->
<g id="edge3" class="edge">
<title>nid&#45;07&#45;ampin&#45;&gt;nid&#45;07</title>
<path fill="none" stroke="#c8c8c8" d="M1214.68,-1051C1265.72,-1051 1378.94,-1051 1439.75,-1051"/>
<polygon fill="#c8c8c8" stroke="#c8c8c8" points="1440.11,-1052.75 1445.11,-1051 1440.11,-1049.25 1440.11,-1052.75"/>
</g>
<!-- nid&#45;24 -->
<g id="node8" class="node">
<title>nid&#45;24</title>
<polygon fill="none" stroke="black" points="900.75,-1089 816.84,-1089 795.25,-1013 879.16,-1013 900.75,-1089"/>
<text text-anchor="middle" x="848" y="-1054.8" font-family="Times,serif" font-size="14.00">0x24</text>
<text text-anchor="middle" x="848" y="-1039.8" font-family="Times,serif" font-size="14.00">Stereo</text>
</g>
<!-- nid&#45;24&#45;&gt;nid&#45;07&#45;ampin -->
<g id="edge4" class="edge">
<title>nid&#45;24&#45;&gt;nid&#45;07&#45;ampin</title>
<path fill="none" stroke="#333333" d="M890.05,-1051C961.72,-1051 1107.37,-1051 1163.64,-1051"/>
<polygon fill="#333333" stroke="#333333" points="1163.94,-1054.5 1173.94,-1051 1163.94,-1047.5 1163.94,-1054.5"/>
</g>
<!-- nid&#45;08 -->
<g id="node9" class="node">
<title>nid&#45;08</title>
<ellipse fill="none" stroke="red" cx="1769.36" cy="-801" rx="36.12" ry="26.74"/>
<text text-anchor="middle" x="1769.36" y="-804.8" font-family="Times,serif" font-size="14.00">0x08</text>
<text text-anchor="middle" x="1769.36" y="-789.8" font-family="Times,serif" font-size="14.00">Stereo</text>
</g>
<!-- nid&#45;08&#45;ampin -->
<g id="node10" class="node">
<title>nid&#45;08&#45;ampin</title>
<polygon fill="none" stroke="#3232f1" points="1508.24,-801 1467.74,-819 1467.74,-783 1508.24,-801"/>
</g>
<!-- nid&#45;08&#45;ampin&#45;&gt;nid&#45;08 -->
<g id="edge5" class="edge">
<title>nid&#45;08&#45;ampin&#45;&gt;nid&#45;08</title>
<path fill="none" stroke="#3232f1" d="M1508.39,-801C1558.47,-801 1668.24,-801 1727.87,-801"/>
<polygon fill="#3232f1" stroke="#3232f1" points="1728.13,-802.75 1733.13,-801 1728.13,-799.25 1728.13,-802.75"/>
</g>
<!-- nid&#45;23 -->
<g id="node11" class="node">
<title>nid&#45;23</title>
<polygon fill="none" stroke="black" points="1229.32,-801 1208.43,-832.05 1166.64,-832.05 1145.75,-801 1166.64,-769.95 1208.43,-769.95 1229.32,-801"/>
<text text-anchor="middle" x="1187.53" y="-804.8" font-family="Times,serif" font-size="14.00">0x23</text>
<text text-anchor="middle" x="1187.53" y="-789.8" font-family="Times,serif" font-size="14.00">Stereo</text>
</g>
<!-- nid&#45;23&#45;&gt;nid&#45;08&#45;ampin -->
<g id="edge6" class="edge">
<title>nid&#45;23&#45;&gt;nid&#45;08&#45;ampin</title>
<path fill="none" stroke="#333333" d="M1229.4,-801C1291.66,-801 1408.22,-801 1457.41,-801"/>
<polygon fill="#333333" stroke="#333333" points="1457.62,-804.5 1467.62,-801 1457.62,-797.5 1457.62,-804.5"/>
</g>
<!-- nid&#45;09 -->
<g id="node12" class="node">
<title>nid&#45;09</title>
<ellipse fill="none" stroke="red" cx="1769.36" cy="-443" rx="36.12" ry="26.74"/>
<text text-anchor="middle" x="1769.36" y="-446.8" font-family="Times,serif" font-size="14.00">0x09</text>
<text text-anchor="middle" x="1769.36" y="-431.8" font-family="Times,serif" font-size="14.00">Stereo</text>
</g>
<!-- nid&#45;09&#45;ampin -->
<g id="node13" class="node">
<title>nid&#45;09&#45;ampin</title>
<polygon fill="none" stroke="#c8c8c8" points="1508.24,-443 1467.74,-461 1467.74,-425 1508.24,-443"/>
</g>
<!-- nid&#45;09&#45;ampin&#45;&gt;nid&#45;09 -->
<g id="edge7" class="edge">
<title>nid&#45;09&#45;ampin&#45;&gt;nid&#45;09</title>
<path fill="none" stroke="#c8c8c8" d="M1508.39,-443C1558.47,-443 1668.24,-443 1727.87,-443"/>
<polygon fill="#c8c8c8" stroke="#c8c8c8" points="1728.13,-444.75 1733.13,-443 1728.13,-441.25 1728.13,-444.75"/>
</g>
<!-- nid&#45;22 -->
<g id="node14" class="node">
<title>nid&#45;22</title>
<polygon fill="none" stroke="black" points="1229.32,-443 1208.43,-474.05 1166.64,-474.05 1145.75,-443 1166.64,-411.95 1208.43,-411.95 1229.32,-443"/>
<text text-anchor="middle" x="1187.53" y="-446.8" font-family="Times,serif" font-size="14.00">0x22</text>
<text text-anchor="middle" x="1187.53" y="-431.8" font-family="Times,serif" font-size="14.00">Stereo</text>
</g>
<!-- nid&#45;22&#45;&gt;nid&#45;09&#45;ampin -->
<g id="edge8" class="edge">
<title>nid&#45;22&#45;&gt;nid&#45;09&#45;ampin</title>
<path fill="none" stroke="#333333" d="M1229.4,-443C1291.66,-443 1408.22,-443 1457.41,-443"/>
<polygon fill="#333333" stroke="#333333" points="1457.62,-446.5 1467.62,-443 1457.62,-439.5 1457.62,-446.5"/>
</g>
<!-- nid&#45;12&#45;out -->
<g id="node15" class="node">
<title>nid&#45;12&#45;out</title>
<polygon fill="none" stroke="green" points="527.11,-995 385.11,-995 385.11,-927 527.11,-927 527.11,-995"/>
<text text-anchor="middle" x="456.11" y="-979.8" font-family="Times,serif" font-size="14.00">0x12</text>
<text text-anchor="middle" x="456.11" y="-964.8" font-family="Times,serif" font-size="14.00">[Fixed] Mic at Int N/A</text>
<text text-anchor="middle" x="456.11" y="-949.8" font-family="Times,serif" font-size="14.00">Stereo</text>
<text text-anchor="middle" x="456.11" y="-934.8" font-family="Times,serif" font-size="14.00">IN</text>
</g>
<!-- nid&#45;12&#45;out&#45;&gt;nid&#45;24 -->
<g id="edge39" class="edge">
<title>nid&#45;12&#45;out&#45;&gt;nid&#45;24</title>
<path fill="none" stroke="#333333" d="M527.26,-977.19C603.64,-994.82 724.11,-1022.63 793.3,-1038.61"/>
<polygon fill="#333333" stroke="#333333" points="792.6,-1042.03 803.13,-1040.87 794.17,-1035.21 792.6,-1042.03"/>
</g>
<!-- nid&#45;23&#45;ampin&#45;18 -->
<g id="node38" class="node">
<title>nid&#45;23&#45;ampin&#45;18</title>
<polygon fill="none" stroke="#0000ff" points="929.79,-961 807.11,-984 807.11,-938 929.79,-961"/>
<text text-anchor="middle" x="848" y="-957.3" font-family="Times,serif" font-size="14.00">5 (0x12)</text>
</g>
<!-- nid&#45;12&#45;out&#45;&gt;nid&#45;23&#45;ampin&#45;18 -->
<g id="edge38" class="edge">
<title>nid&#45;12&#45;out&#45;&gt;nid&#45;23&#45;ampin&#45;18</title>
<path fill="none" stroke="#333333" d="M527.26,-961C604.94,-961 728.23,-961 796.8,-961"/>
<polygon fill="#333333" stroke="#333333" points="796.92,-964.5 806.92,-961 796.92,-957.5 796.92,-964.5"/>
</g>
<!-- nid&#45;13&#45;out -->
<g id="node16" class="node">
<title>nid&#45;13&#45;out</title>
<polygon fill="none" stroke="green" points="538.11,-1087 374.11,-1087 374.11,-1019 538.11,-1019 538.11,-1087"/>
<text text-anchor="middle" x="456.11" y="-1071.8" font-family="Times,serif" font-size="14.00">0x13</text>
<text text-anchor="middle" x="456.11" y="-1056.8" font-family="Times,serif" font-size="14.00">[N/A] Line Out at Ext N/A</text>
<text text-anchor="middle" x="456.11" y="-1041.8" font-family="Times,serif" font-size="14.00">Stereo</text>
<text text-anchor="middle" x="456.11" y="-1026.8" font-family="Times,serif" font-size="14.00">IN</text>
</g>
<!-- nid&#45;13&#45;out&#45;&gt;nid&#45;24 -->
<g id="edge40" class="edge">
<title>nid&#45;13&#45;out&#45;&gt;nid&#45;24</title>
<path fill="none" stroke="gray" stroke-dasharray="5,2" d="M538.37,-1052.58C615.9,-1052.19 730.32,-1051.6 795.86,-1051.26"/>
<polygon fill="gray" stroke="gray" points="795.97,-1054.76 805.95,-1051.21 795.93,-1047.76 795.97,-1054.76"/>
</g>
<!-- nid&#45;18&#45;out -->
<g id="node18" class="node">
<title>nid&#45;18&#45;out</title>
<polygon fill="none" stroke="green" points="536.61,-699 375.61,-699 375.61,-631 536.61,-631 536.61,-699"/>
<text text-anchor="middle" x="456.11" y="-683.8" font-family="Times,serif" font-size="14.00">0x18</text>
<text text-anchor="middle" x="456.11" y="-668.8" font-family="Times,serif" font-size="14.00">[N/A] Speaker at Ext Rear</text>
<text text-anchor="middle" x="456.11" y="-653.8" font-family="Times,serif" font-size="14.00">Stereo</text>
<text text-anchor="middle" x="456.11" y="-638.8" font-family="Times,serif" font-size="14.00">IN Detect</text>
</g>
<!-- nid&#45;22&#45;ampin&#45;24 -->
<g id="node28" class="node">
<title>nid&#45;22&#45;ampin&#45;24</title>
<polygon fill="none" stroke="#c8c8c8" points="929.79,-443 807.11,-466 807.11,-420 929.79,-443"/>
<text text-anchor="middle" x="848" y="-439.3" font-family="Times,serif" font-size="14.00">0 (0x18)</text>
</g>
<!-- nid&#45;18&#45;out&#45;&gt;nid&#45;22&#45;ampin&#45;24 -->
<g id="edge22" class="edge">
<title>nid&#45;18&#45;out&#45;&gt;nid&#45;22&#45;ampin&#45;24</title>
<path fill="none" stroke="#333333" d="M508.03,-630.96C579.98,-583.19 708.2,-499.37 758.11,-475 770.44,-468.98 784.21,-463.47 797.15,-458.79"/>
<polygon fill="#333333" stroke="#333333" points="798.58,-462 806.86,-455.38 796.26,-455.4 798.58,-462"/>
</g>
<!-- nid&#45;23&#45;ampin&#45;24 -->
<g id="node33" class="node">
<title>nid&#45;23&#45;ampin&#45;24</title>
<polygon fill="none" stroke="#c8c8c8" points="929.79,-769 807.11,-792 807.11,-746 929.79,-769"/>
<text text-anchor="middle" x="848" y="-765.3" font-family="Times,serif" font-size="14.00">0 (0x18)</text>
</g>
<!-- nid&#45;18&#45;out&#45;&gt;nid&#45;23&#45;ampin&#45;24 -->
<g id="edge33" class="edge">
<title>nid&#45;18&#45;out&#45;&gt;nid&#45;23&#45;ampin&#45;24</title>
<path fill="none" stroke="#333333" d="M536.95,-686.3C615.04,-707.13 731.52,-738.2 797.23,-755.72"/>
<polygon fill="#333333" stroke="#333333" points="796.37,-759.12 806.93,-758.31 798.17,-752.35 796.37,-759.12"/>
</g>
<!-- nid&#45;19&#45;out -->
<g id="node19" class="node">
<title>nid&#45;19&#45;out</title>
<polygon fill="none" stroke="green" points="528.61,-584 383.61,-584 383.61,-516 528.61,-516 528.61,-584"/>
<text text-anchor="middle" x="456.11" y="-568.8" font-family="Times,serif" font-size="14.00">0x19</text>
<text text-anchor="middle" x="456.11" y="-553.8" font-family="Times,serif" font-size="14.00">[Jack] Mic at Ext Front</text>
<text text-anchor="middle" x="456.11" y="-538.8" font-family="Times,serif" font-size="14.00">Stereo</text>
<text text-anchor="middle" x="456.11" y="-523.8" font-family="Times,serif" font-size="14.00">IN Detect</text>
</g>
<!-- nid&#45;22&#45;ampin&#45;25 -->
<g id="node29" class="node">
<title>nid&#45;22&#45;ampin&#45;25</title>
<polygon fill="none" stroke="#c8c8c8" points="929.79,-379 807.11,-402 807.11,-356 929.79,-379"/>
<text text-anchor="middle" x="848" y="-375.3" font-family="Times,serif" font-size="14.00">1 (0x19)</text>
</g>
<!-- nid&#45;19&#45;out&#45;&gt;nid&#45;22&#45;ampin&#45;25 -->
<g id="edge23" class="edge">
<title>nid&#45;19&#45;out&#45;&gt;nid&#45;22&#45;ampin&#45;25</title>
<path fill="none" stroke="#333333" d="M526.29,-515.96C586.82,-486.69 677.42,-444.08 758.11,-411 770.69,-405.84 784.44,-400.67 797.28,-396.04"/>
<polygon fill="#333333" stroke="#333333" points="798.65,-399.26 806.89,-392.6 796.3,-392.67 798.65,-399.26"/>
</g>
<!-- nid&#45;23&#45;ampin&#45;25 -->
<g id="node34" class="node">
<title>nid&#45;23&#45;ampin&#45;25</title>
<polygon fill="none" stroke="#c8c8c8" points="929.79,-705 807.11,-728 807.11,-682 929.79,-705"/>
<text text-anchor="middle" x="848" y="-701.3" font-family="Times,serif" font-size="14.00">1 (0x19)</text>
</g>
<!-- nid&#45;19&#45;out&#45;&gt;nid&#45;23&#45;ampin&#45;25 -->
<g id="edge34" class="edge">
<title>nid&#45;19&#45;out&#45;&gt;nid&#45;23&#45;ampin&#45;25</title>
<path fill="none" stroke="#333333" d="M528.84,-580.31C589.61,-605.75 679.19,-642.69 758.11,-673 770.8,-677.87 784.59,-682.95 797.43,-687.58"/>
<polygon fill="#333333" stroke="#333333" points="796.45,-690.94 807.04,-691.02 798.81,-684.35 796.45,-690.94"/>
</g>
<!-- nid&#45;1a&#45;out -->
<g id="node20" class="node">
<title>nid&#45;1a&#45;out</title>
<polygon fill="none" stroke="green" points="536.61,-447 375.61,-447 375.61,-379 536.61,-379 536.61,-447"/>
<text text-anchor="middle" x="456.11" y="-431.8" font-family="Times,serif" font-size="14.00">0x1a</text>
<text text-anchor="middle" x="456.11" y="-416.8" font-family="Times,serif" font-size="14.00">[N/A] Speaker at Ext Rear</text>
<text text-anchor="middle" x="456.11" y="-401.8" font-family="Times,serif" font-size="14.00">Stereo</text>
<text text-anchor="middle" x="456.11" y="-386.8" font-family="Times,serif" font-size="14.00">IN Detect</text>
</g>
<!-- nid&#45;22&#45;ampin&#45;26 -->
<g id="node30" class="node">
<title>nid&#45;22&#45;ampin&#45;26</title>
<polygon fill="none" stroke="#c8c8c8" points="928.69,-315 807.66,-338 807.66,-292 928.69,-315"/>
<text text-anchor="middle" x="848" y="-311.3" font-family="Times,serif" font-size="14.00">2 (0x1a)</text>
</g>
<!-- nid&#45;1a&#45;out&#45;&gt;nid&#45;22&#45;ampin&#45;26 -->
<g id="edge24" class="edge">
<title>nid&#45;1a&#45;out&#45;&gt;nid&#45;22&#45;ampin&#45;26</title>
<path fill="none" stroke="#333333" d="M536.95,-392.93C615.09,-373.29 731.67,-343.99 797.36,-327.48"/>
<polygon fill="#333333" stroke="#333333" points="798.6,-330.77 807.45,-324.94 796.9,-323.98 798.6,-330.77"/>
</g>
<!-- nid&#45;23&#45;ampin&#45;26 -->
<g id="node35" class="node">
<title>nid&#45;23&#45;ampin&#45;26</title>
<polygon fill="none" stroke="#c8c8c8" points="928.69,-641 807.66,-664 807.66,-618 928.69,-641"/>
<text text-anchor="middle" x="848" y="-637.3" font-family="Times,serif" font-size="14.00">2 (0x1a)</text>
</g>
<!-- nid&#45;1a&#45;out&#45;&gt;nid&#45;23&#45;ampin&#45;26 -->
<g id="edge35" class="edge">
<title>nid&#45;1a&#45;out&#45;&gt;nid&#45;23&#45;ampin&#45;26</title>
<path fill="none" stroke="#333333" d="M503.87,-447.08C561.64,-488.21 663.87,-557.82 758.11,-606 770.7,-612.44 784.77,-618.47 797.94,-623.66"/>
<polygon fill="#333333" stroke="#333333" points="796.74,-626.95 807.33,-627.28 799.26,-620.42 796.74,-626.95"/>
</g>
<!-- nid&#45;1b&#45;ampout -->
<g id="node22" class="node">
<title>nid&#45;1b&#45;ampout</title>
<polygon fill="none" stroke="#c8c8c8" points="1214.53,-50 1174.03,-68 1174.03,-32 1214.53,-50"/>
</g>
<!-- nid&#45;1b&#45;in&#45;&gt;nid&#45;1b&#45;ampout -->
<g id="edge10" class="edge">
<title>nid&#45;1b&#45;in&#45;&gt;nid&#45;1b&#45;ampout</title>
<path fill="none" stroke="#c8c8c8" d="M928.56,-50C1008,-50 1124.44,-50 1168.63,-50"/>
<polygon fill="#c8c8c8" stroke="#c8c8c8" points="1168.9,-51.75 1173.9,-50 1168.9,-48.25 1168.9,-51.75"/>
</g>
<!-- nid&#45;1b&#45;out -->
<g id="node23" class="node">
<title>nid&#45;1b&#45;out</title>
<polygon fill="none" stroke="green" points="536.61,-900 375.61,-900 375.61,-832 536.61,-832 536.61,-900"/>
<text text-anchor="middle" x="456.11" y="-884.8" font-family="Times,serif" font-size="14.00">0x1b</text>
<text text-anchor="middle" x="456.11" y="-869.8" font-family="Times,serif" font-size="14.00">[N/A] Speaker at Ext Rear</text>
<text text-anchor="middle" x="456.11" y="-854.8" font-family="Times,serif" font-size="14.00">Stereo</text>
<text text-anchor="middle" x="456.11" y="-839.8" font-family="Times,serif" font-size="14.00">IN OUT EAPD Detect</text>
</g>
<!-- nid&#45;22&#45;ampin&#45;27 -->
<g id="node31" class="node">
<title>nid&#45;22&#45;ampin&#45;27</title>
<polygon fill="none" stroke="#c8c8c8" points="929.79,-571 807.11,-594 807.11,-548 929.79,-571"/>
<text text-anchor="middle" x="848" y="-567.3" font-family="Times,serif" font-size="14.00">3 (0x1b)</text>
</g>
<!-- nid&#45;1b&#45;out&#45;&gt;nid&#45;22&#45;ampin&#45;27 -->
<g id="edge25" class="edge">
<title>nid&#45;1b&#45;out&#45;&gt;nid&#45;22&#45;ampin&#45;27</title>
<path fill="none" stroke="#333333" d="M530.57,-831.85C540.14,-826.35 549.57,-820.36 558.11,-814 660.96,-737.39 651.55,-677.36 758.11,-606 769.97,-598.05 783.91,-591.49 797.19,-586.29"/>
<polygon fill="#333333" stroke="#333333" points="798.56,-589.51 806.7,-582.73 796.11,-582.95 798.56,-589.51"/>
</g>
<!-- nid&#45;23&#45;ampin&#45;27 -->
<g id="node36" class="node">
<title>nid&#45;23&#45;ampin&#45;27</title>
<polygon fill="none" stroke="#c8c8c8" points="929.79,-897 807.11,-920 807.11,-874 929.79,-897"/>
<text text-anchor="middle" x="848" y="-893.3" font-family="Times,serif" font-size="14.00">3 (0x1b)</text>
</g>
<!-- nid&#45;1b&#45;out&#45;&gt;nid&#45;23&#45;ampin&#45;27 -->
<g id="edge36" class="edge">
<title>nid&#45;1b&#45;out&#45;&gt;nid&#45;23&#45;ampin&#45;27</title>
<path fill="none" stroke="#333333" d="M536.95,-872.35C614.88,-878.54 731.04,-887.78 796.82,-893.01"/>
<polygon fill="#333333" stroke="#333333" points="796.69,-896.51 806.93,-893.81 797.24,-889.53 796.69,-896.51"/>
</g>
<!-- nid&#45;1b&#45;ampin -->
<g id="node24" class="node">
<title>nid&#45;1b&#45;ampin</title>
<polygon fill="none" stroke="#0000ff" points="108.05,-866 67.55,-884 67.55,-848 108.05,-866"/>
</g>
<!-- nid&#45;1b&#45;ampin&#45;&gt;nid&#45;1b&#45;out -->
<g id="edge11" class="edge">
<title>nid&#45;1b&#45;ampin&#45;&gt;nid&#45;1b&#45;out</title>
<path fill="none" stroke="#0000ff" d="M108.29,-866C161.89,-866 286.04,-866 370.3,-866"/>
<polygon fill="#0000ff" stroke="#0000ff" points="370.54,-867.75 375.54,-866 370.54,-864.25 370.54,-867.75"/>
</g>
<!-- nid&#45;1d&#45;out -->
<g id="node25" class="node">
<title>nid&#45;1d&#45;out</title>
<polygon fill="none" stroke="green" points="550.11,-802 362.11,-802 362.11,-734 550.11,-734 550.11,-802"/>
<text text-anchor="middle" x="456.11" y="-786.8" font-family="Times,serif" font-size="14.00">0x1d</text>
<text text-anchor="middle" x="456.11" y="-771.8" font-family="Times,serif" font-size="14.00">[N/A] Modem Line at Ext N/A</text>
<text text-anchor="middle" x="456.11" y="-756.8" font-family="Times,serif" font-size="14.00">Mono</text>
<text text-anchor="middle" x="456.11" y="-741.8" font-family="Times,serif" font-size="14.00">IN</text>
</g>
<!-- nid&#45;22&#45;ampin&#45;29 -->
<g id="node32" class="node">
<title>nid&#45;22&#45;ampin&#45;29</title>
<polygon fill="none" stroke="#c8c8c8" points="929.79,-507 807.11,-530 807.11,-484 929.79,-507"/>
<text text-anchor="middle" x="848" y="-503.3" font-family="Times,serif" font-size="14.00">4 (0x1d)</text>
</g>
<!-- nid&#45;1d&#45;out&#45;&gt;nid&#45;22&#45;ampin&#45;29 -->
<g id="edge26" class="edge">
<title>nid&#45;1d&#45;out&#45;&gt;nid&#45;22&#45;ampin&#45;29</title>
<path fill="none" stroke="#333333" d="M521.85,-733.97C534.16,-726.8 546.74,-718.98 558.11,-711 654.07,-643.64 656.83,-598.06 758.11,-539 770.08,-532.02 783.82,-526.16 796.87,-521.45"/>
<polygon fill="#333333" stroke="#333333" points="798.37,-524.64 806.68,-518.06 796.08,-518.02 798.37,-524.64"/>
</g>
<!-- nid&#45;23&#45;ampin&#45;29 -->
<g id="node37" class="node">
<title>nid&#45;23&#45;ampin&#45;29</title>
<polygon fill="none" stroke="#c8c8c8" points="929.79,-833 807.11,-856 807.11,-810 929.79,-833"/>
<text text-anchor="middle" x="848" y="-829.3" font-family="Times,serif" font-size="14.00">4 (0x1d)</text>
</g>
<!-- nid&#45;1d&#45;out&#45;&gt;nid&#45;23&#45;ampin&#45;29 -->
<g id="edge37" class="edge">
<title>nid&#45;1d&#45;out&#45;&gt;nid&#45;23&#45;ampin&#45;29</title>
<path fill="none" stroke="#333333" d="M550.5,-783.57C627.96,-796.48 735.11,-814.35 797.13,-824.69"/>
<polygon fill="#333333" stroke="#333333" points="796.62,-828.15 807.06,-826.34 797.77,-821.24 796.62,-828.15"/>
</g>
<!-- nid&#45;22&#45;ampin&#45;24&#45;&gt;nid&#45;22 -->
<g id="edge17" class="edge">
<title>nid&#45;22&#45;ampin&#45;24&#45;&gt;nid&#45;22</title>
<path fill="none" stroke="#c8c8c8" d="M929.85,-443C995.79,-443 1086.57,-443 1140.63,-443"/>
<polygon fill="#c8c8c8" stroke="#c8c8c8" points="1140.75,-444.75 1145.75,-443 1140.75,-441.25 1140.75,-444.75"/>
</g>
<!-- nid&#45;22&#45;ampin&#45;25&#45;&gt;nid&#45;22 -->
<g id="edge18" class="edge">
<title>nid&#45;22&#45;ampin&#45;25&#45;&gt;nid&#45;22</title>
<path fill="none" stroke="#c8c8c8" d="M889.38,-386.66C954.02,-398.91 1080.05,-422.81 1145.25,-435.17"/>
<polygon fill="#c8c8c8" stroke="#c8c8c8" points="1144.98,-436.9 1150.22,-436.11 1145.64,-433.46 1144.98,-436.9"/>
</g>
<!-- nid&#45;22&#45;ampin&#45;26&#45;&gt;nid&#45;22 -->
<g id="edge19" class="edge">
<title>nid&#45;22&#45;ampin&#45;26&#45;&gt;nid&#45;22</title>
<path fill="none" stroke="#c8c8c8" d="M876.96,-324.94C894.4,-331.18 917.3,-339.45 937.5,-347 1012.83,-375.13 1100.47,-409.24 1149.11,-428.29"/>
<polygon fill="#c8c8c8" stroke="#c8c8c8" points="1148.69,-430.01 1153.98,-430.2 1149.97,-426.75 1148.69,-430.01"/>
</g>
<!-- nid&#45;22&#45;ampin&#45;27&#45;&gt;nid&#45;22 -->
<g id="edge20" class="edge">
<title>nid&#45;22&#45;ampin&#45;27&#45;&gt;nid&#45;22</title>
<path fill="none" stroke="#c8c8c8" d="M876.96,-561.06C894.4,-554.82 917.3,-546.55 937.5,-539 1012.83,-510.87 1100.47,-476.76 1149.11,-457.71"/>
<polygon fill="#c8c8c8" stroke="#c8c8c8" points="1149.97,-459.25 1153.98,-455.8 1148.69,-455.99 1149.97,-459.25"/>
</g>
<!-- nid&#45;22&#45;ampin&#45;29&#45;&gt;nid&#45;22 -->
<g id="edge21" class="edge">
<title>nid&#45;22&#45;ampin&#45;29&#45;&gt;nid&#45;22</title>
<path fill="none" stroke="#c8c8c8" d="M889.38,-499.34C954.02,-487.09 1080.05,-463.19 1145.25,-450.83"/>
<polygon fill="#c8c8c8" stroke="#c8c8c8" points="1145.64,-452.54 1150.22,-449.89 1144.98,-449.1 1145.64,-452.54"/>
</g>
<!-- nid&#45;23&#45;ampin&#45;24&#45;&gt;nid&#45;23 -->
<g id="edge27" class="edge">
<title>nid&#45;23&#45;ampin&#45;24&#45;&gt;nid&#45;23</title>
<path fill="none" stroke="#c8c8c8" d="M902.86,-774.11C969.48,-780.42 1081.59,-791.05 1143.03,-796.88"/>
<polygon fill="#c8c8c8" stroke="#c8c8c8" points="1142.95,-798.63 1148.09,-797.36 1143.28,-795.14 1142.95,-798.63"/>
</g>
<!-- nid&#45;23&#45;ampin&#45;25&#45;&gt;nid&#45;23 -->
<g id="edge28" class="edge">
<title>nid&#45;23&#45;ampin&#45;25&#45;&gt;nid&#45;23</title>
<path fill="none" stroke="#c8c8c8" d="M881.36,-714.2C943.6,-731.91 1079.75,-770.63 1147.14,-789.8"/>
<polygon fill="#c8c8c8" stroke="#c8c8c8" points="1146.98,-791.57 1152.27,-791.25 1147.94,-788.2 1146.98,-791.57"/>
</g>
<!-- nid&#45;23&#45;ampin&#45;26&#45;&gt;nid&#45;23 -->
<g id="edge29" class="edge">
<title>nid&#45;23&#45;ampin&#45;26&#45;&gt;nid&#45;23</title>
<path fill="none" stroke="#c8c8c8" d="M878.47,-650.6C895.86,-656.52 918.18,-664.58 937.5,-673 1016.29,-707.33 1105.03,-755.29 1152.4,-781.68"/>
<polygon fill="#c8c8c8" stroke="#c8c8c8" points="1151.63,-783.26 1156.85,-784.17 1153.34,-780.2 1151.63,-783.26"/>
</g>
<!-- nid&#45;23&#45;ampin&#45;27&#45;&gt;nid&#45;23 -->
<g id="edge30" class="edge">
<title>nid&#45;23&#45;ampin&#45;27&#45;&gt;nid&#45;23</title>
<path fill="none" stroke="#c8c8c8" d="M881.36,-887.8C943.6,-870.09 1079.75,-831.37 1147.14,-812.2"/>
<polygon fill="#c8c8c8" stroke="#c8c8c8" points="1147.94,-813.8 1152.27,-810.75 1146.98,-810.43 1147.94,-813.8"/>
</g>
<!-- nid&#45;23&#45;ampin&#45;29&#45;&gt;nid&#45;23 -->
<g id="edge31" class="edge">
<title>nid&#45;23&#45;ampin&#45;29&#45;&gt;nid&#45;23</title>
<path fill="none" stroke="#c8c8c8" d="M902.86,-827.89C969.48,-821.58 1081.59,-810.95 1143.03,-805.12"/>
<polygon fill="#c8c8c8" stroke="#c8c8c8" points="1143.28,-806.86 1148.09,-804.64 1142.95,-803.37 1143.28,-806.86"/>
</g>
<!-- nid&#45;23&#45;ampin&#45;18&#45;&gt;nid&#45;23 -->
<g id="edge32" class="edge">
<title>nid&#45;23&#45;ampin&#45;18&#45;&gt;nid&#45;23</title>
<path fill="none" stroke="#0000ff" d="M878.87,-951.26C896.2,-945.35 918.33,-937.35 937.5,-929 1016.29,-894.67 1105.03,-846.71 1152.4,-820.32"/>
<polygon fill="#0000ff" stroke="#0000ff" points="1153.34,-821.8 1156.85,-817.83 1151.63,-818.74 1153.34,-821.8"/>
</g>
</g>
</svg>
